<svg width="22" height="18" viewBox="0 0 22 18" fill="none" xmlns="http://www.w3.org/2000/svg">
<path d="M1.56774 1L5.32909 4.19036M20.4313 17L16.6703 13.8099M12.9643 15.0663C12.3281 15.1687 11.6714 15.2222 11 15.2222C6.30753 15.2222 2.33539 12.6063 1 8.99997C1.36354 8.01822 1.92249 7.10987 2.63818 6.30772M8.77643 7.11438C9.34537 6.63181 10.1314 6.33333 10.9995 6.33333C12.7359 6.33333 14.1435 7.52724 14.1435 9C14.1435 9.73638 13.7916 10.403 13.2226 10.8856M8.77643 7.11438L13.2226 10.8856M8.77643 7.11438L5.32909 4.19036M13.2226 10.8856L5.32909 4.19036M13.2226 10.8856L16.6703 13.8099M5.32909 4.19036C6.96375 3.29648 8.91045 2.77778 11 2.77778C15.6925 2.77778 19.6646 5.3937 21 9.00003C20.2592 11.0006 18.7069 12.6965 16.6703 13.8099" stroke="#F52B38" stroke-width="2" stroke-linecap="round" stroke-linejoin="round"/>
</svg>
