<svg width="18" height="18" viewBox="0 0 18 18" fill="none" xmlns="http://www.w3.org/2000/svg">
<path d="M17.9999 9.19988C17.9999 8.45989 17.9387 7.91989 17.8061 7.35989H9.18359V10.6999H14.2448C14.1428 11.5299 13.5918 12.7799 12.3673 13.6198L12.3501 13.7317L15.0764 15.8014L15.2652 15.8199C16.9999 14.2499 17.9999 11.9399 17.9999 9.19988Z" fill="#4285F4"/>
<path d="M9.18457 17.9999C11.6641 17.9999 13.7457 17.1998 15.2662 15.8198L12.3682 13.6198C11.5927 14.1498 10.5519 14.5198 9.18457 14.5198C6.75601 14.5198 4.69481 12.9498 3.96004 10.7798L3.85234 10.7887L1.01754 12.9388L0.980469 13.0398C2.49066 15.9798 5.5927 17.9999 9.18457 17.9999Z" fill="#34A853"/>
<path d="M3.95915 10.78C3.76528 10.22 3.65308 9.61992 3.65308 8.99995C3.65308 8.37991 3.76528 7.77993 3.94895 7.21994L3.94382 7.10068L1.07348 4.91614L0.97957 4.95991C0.357147 6.17993 0 7.54995 0 8.99995C0 10.4499 0.357147 11.8199 0.97957 13.0399L3.95915 10.78Z" fill="#FBBC05"/>
<path d="M9.18461 3.47997C10.9091 3.47997 12.0723 4.20997 12.7356 4.82001L15.3275 2.34C13.7357 0.890003 11.6642 0 9.18461 0C5.59273 0 2.49066 2.01998 0.980469 4.95996L3.94986 7.21999C4.69483 5.04999 6.75604 3.47997 9.18461 3.47997Z" fill="#EB4335"/>
</svg>
